ISO-10303-21;
HEADER;
FILE_DESCRIPTION(('Open CASCADE Model'),'2;1');
FILE_NAME('Open CASCADE Shape Model','2026-10-02T07:31:16',('Author'),(
    'Open CASCADE'),'Open CASCADE STEP processor 7.9','Open CASCADE 7.9'
  ,'Unknown');
FILE_SCHEMA(('AUTOMOTIVE_DESIGN { 1 0 10303 214 1 1 1 1 }'));
ENDSEC;
DATA;
#1 = APPLICATION_PROTOCOL_DEFINITION('international standard',
  'automotive_design',2000,#2);
#2 = APPLICATION_CONTEXT(
  'core data for automotive mechanical design processes');
#3 = SHAPE_DEFINITION_REPRESENTATION(#4,#10);
#4 = PRODUCT_DEFINITION_SHAPE('','',#5);
#5 = PRODUCT_DEFINITION('design','',#6,#9);
#6 = PRODUCT_DEFINITION_FORMATION('','',#7);
#7 = PRODUCT('C-BRK-05_Brake_master_cylinder_5_8in_with_reservoir',
  'C-BRK-05_Brake_master_cylinder_5_8in_with_reservoir','',(#8));
#8 = PRODUCT_CONTEXT('',#2,'mechanical');
#9 = PRODUCT_DEFINITION_CONTEXT('part definition',#2,'design');
#10 = ADVANCED_BREP_SHAPE_REPRESENTATION('',(#11,#15),#1151);
#11 = AXIS2_PLACEMENT_3D('',#12,#13,#14);
#12 = CARTESIAN_POINT('',(0.,0.,0.));
#13 = DIRECTION('',(0.,0.,1.));
#14 = DIRECTION('',(1.,0.,-0.));
#15 = MANIFOLD_SOLID_BREP('',#16);
#16 = CLOSED_SHELL('',(#17,#492,#610,#614,#669,#745,#794,#843,#870,#905,
    #943,#998,#1053,#1088,#1092,#1147));
#17 = ADVANCED_FACE('',(#18,#105),#31,.T.);
#18 = FACE_BOUND('',#19,.T.);
#19 = EDGE_LOOP('',(#20,#54,#77,#104));
#20 = ORIENTED_EDGE('',*,*,#21,.F.);
#21 = EDGE_CURVE('',#22,#22,#24,.T.);
#22 = VERTEX_POINT('',#23);
#23 = CARTESIAN_POINT('',(1.220194476392E+03,361.77406610312,5.));
#24 = SURFACE_CURVE('',#25,(#30,#42),.PCURVE_S1.);
#25 = CIRCLE('',#26,15.);
#26 = AXIS2_PLACEMENT_3D('',#27,#28,#29);
#27 = CARTESIAN_POINT('',(1.220194476392E+03,361.77406610312,-10.));
#28 = DIRECTION('',(1.,0.,0.));
#29 = DIRECTION('',(-0.,0.,1.));
#30 = PCURVE('',#31,#36);
#31 = CYLINDRICAL_SURFACE('',#32,15.);
#32 = AXIS2_PLACEMENT_3D('',#33,#34,#35);
#33 = CARTESIAN_POINT('',(1.108194476392E+03,361.77406610312,-10.));
#34 = DIRECTION('',(1.,0.,0.));
#35 = DIRECTION('',(-0.,0.,1.));
#36 = DEFINITIONAL_REPRESENTATION('',(#37),#41);
#37 = LINE('',#38,#39);
#38 = CARTESIAN_POINT('',(0.,112.));
#39 = VECTOR('',#40,1.);
#40 = DIRECTION('',(1.,0.));
#41 = ( GEOMETRIC_REPRESENTATION_CONTEXT(2) 
PARAMETRIC_REPRESENTATION_CONTEXT() REPRESENTATION_CONTEXT('2D SPACE',''
  ) );
#42 = PCURVE('',#43,#48);
#43 = PLANE('',#44);
#44 = AXIS2_PLACEMENT_3D('',#45,#46,#47);
#45 = CARTESIAN_POINT('',(1.220194476392E+03,339.77406610312,-32.));
#46 = DIRECTION('',(1.,0.,-0.));
#47 = DIRECTION('',(0.,0.,1.));
#48 = DEFINITIONAL_REPRESENTATION('',(#49),#53);
#49 = CIRCLE('',#50,15.);
#50 = AXIS2_PLACEMENT_2D('',#51,#52);
#51 = CARTESIAN_POINT('',(22.,-22.));
#52 = DIRECTION('',(1.,0.));
#53 = ( GEOMETRIC_REPRESENTATION_CONTEXT(2) 
PARAMETRIC_REPRESENTATION_CONTEXT() REPRESENTATION_CONTEXT('2D SPACE',''
  ) );
#54 = ORIENTED_EDGE('',*,*,#55,.F.);
#55 = EDGE_CURVE('',#56,#22,#58,.T.);
#56 = VERTEX_POINT('',#57);
#57 = CARTESIAN_POINT('',(1.108194476392E+03,361.77406610312,5.));
#58 = SEAM_CURVE('',#59,(#63,#70),.PCURVE_S1.);
#59 = LINE('',#60,#61);
#60 = CARTESIAN_POINT('',(1.108194476392E+03,361.77406610312,5.));
#61 = VECTOR('',#62,1.);
#62 = DIRECTION('',(1.,0.,0.));
#63 = PCURVE('',#31,#64);
#64 = DEFINITIONAL_REPRESENTATION('',(#65),#69);
#65 = LINE('',#66,#67);
#66 = CARTESIAN_POINT('',(6.28318530718,-0.));
#67 = VECTOR('',#68,1.);
#68 = DIRECTION('',(0.,1.));
#69 = ( GEOMETRIC_REPRESENTATION_CONTEXT(2) 
PARAMETRIC_REPRESENTATION_CONTEXT() REPRESENTATION_CONTEXT('2D SPACE',''
  ) );
#70 = PCURVE('',#31,#71);
#71 = DEFINITIONAL_REPRESENTATION('',(#72),#76);
#72 = LINE('',#73,#74);
#73 = CARTESIAN_POINT('',(0.,-0.));
#74 = VECTOR('',#75,1.);
#75 = DIRECTION('',(0.,1.));
#76 = ( GEOMETRIC_REPRESENTATION_CONTEXT(2) 
PARAMETRIC_REPRESENTATION_CONTEXT() REPRESENTATION_CONTEXT('2D SPACE',''
  ) );
#77 = ORIENTED_EDGE('',*,*,#78,.T.);
#78 = EDGE_CURVE('',#56,#56,#79,.T.);
#79 = SURFACE_CURVE('',#80,(#85,#92),.PCURVE_S1.);
#80 = CIRCLE('',#81,15.);
#81 = AXIS2_PLACEMENT_3D('',#82,#83,#84);
#82 = CARTESIAN_POINT('',(1.108194476392E+03,361.77406610312,-10.));
#83 = DIRECTION('',(1.,0.,0.));
#84 = DIRECTION('',(-0.,0.,1.));
#85 = PCURVE('',#31,#86);
#86 = DEFINITIONAL_REPRESENTATION('',(#87),#91);
#87 = LINE('',#88,#89);
#88 = CARTESIAN_POINT('',(0.,0.));
#89 = VECTOR('',#90,1.);
#90 = DIRECTION('',(1.,0.));
#91 = ( GEOMETRIC_REPRESENTATION_CONTEXT(2) 
PARAMETRIC_REPRESENTATION_CONTEXT() REPRESENTATION_CONTEXT('2D SPACE',''
  ) );
#92 = PCURVE('',#93,#98);
#93 = PLANE('',#94);
#94 = AXIS2_PLACEMENT_3D('',#95,#96,#97);
#95 = CARTESIAN_POINT('',(1.108194476392E+03,361.77406610312,-10.));
#96 = DIRECTION('',(1.,0.,0.));
#97 = DIRECTION('',(-0.,0.,1.));
#98 = DEFINITIONAL_REPRESENTATION('',(#99),#103);
#99 = CIRCLE('',#100,15.);
#100 = AXIS2_PLACEMENT_2D('',#101,#102);
#101 = CARTESIAN_POINT('',(0.,0.));
#102 = DIRECTION('',(1.,0.));
#103 = ( GEOMETRIC_REPRESENTATION_CONTEXT(2) 
PARAMETRIC_REPRESENTATION_CONTEXT() REPRESENTATION_CONTEXT('2D SPACE',''
  ) );
#104 = ORIENTED_EDGE('',*,*,#55,.T.);
#105 = FACE_BOUND('',#106,.T.);
#106 = EDGE_LOOP('',(#107));
#107 = ORIENTED_EDGE('',*,*,#108,.F.);
#108 = EDGE_CURVE('',#109,#109,#111,.T.);
#109 = VERTEX_POINT('',#110);
#110 = CARTESIAN_POINT('',(1.138194476392E+03,375.91620172685,-5.));
#111 = SURFACE_CURVE('',#112,(#235,#361),.PCURVE_S1.);
#112 = B_SPLINE_CURVE_WITH_KNOTS('',7,(#113,#114,#115,#116,#117,#118,
    #119,#120,#121,#122,#123,#124,#125,#126,#127,#128,#129,#130,#131,
    #132,#133,#134,#135,#136,#137,#138,#139,#140,#141,#142,#143,#144,
    #145,#146,#147,#148,#149,#150,#151,#152,#153,#154,#155,#156,#157,
    #158,#159,#160,#161,#162,#163,#164,#165,#166,#167,#168,#169,#170,
    #171,#172,#173,#174,#175,#176,#177,#178,#179,#180,#181,#182,#183,
    #184,#185,#186,#187,#188,#189,#190,#191,#192,#193,#194,#195,#196,
    #197,#198,#199,#200,#201,#202,#203,#204,#205,#206,#207,#208,#209,
    #210,#211,#212,#213,#214,#215,#216,#217,#218,#219,#220,#221,#222,
    #223,#224,#225,#226,#227,#228,#229,#230,#231,#232,#233,#234),
  .UNSPECIFIED.,.T.,.F.,(8,6,6,6,6,6,6,6,6,6,6,6,6,6,6,6,6,6,6,6,8),(0.,
    0.118214000047,0.146962157042,0.181430839,0.222086185249,
    0.276841954556,0.317855311318,0.352721775147,0.381422815518,
    0.49940934196,0.499979286953,0.618222883479,0.646969097176,
    0.681435449101,0.722088047111,0.776840115011,0.817850699333,
    0.85271480624,0.881413906483,0.999392457422,1.),.UNSPECIFIED.);
#113 = CARTESIAN_POINT('',(1.138194476392E+03,375.91620172685,-5.));
#114 = CARTESIAN_POINT('',(1.138657443757E+03,375.91620172685,-5.));
#115 = CARTESIAN_POINT('',(1.139119657273E+03,375.93388356224,
    -5.050011600217));
#116 = CARTESIAN_POINT('',(1.139577689935E+03,375.96914513247,
    -5.149747350536));
#117 = CARTESIAN_POINT('',(1.140027938779E+03,376.0209529293,
    -5.299824597138));
#118 = CARTESIAN_POINT('',(1.140466213384E+03,376.08731173332,
    -5.501590381474));
#119 = CARTESIAN_POINT('',(1.140887147302E+03,376.16505899045,
    -5.756966567225));
#120 = CARTESIAN_POINT('',(1.141379654323E+03,376.2701517555,
    -6.14388124362));
#121 = CARTESIAN_POINT('',(1.141474568339E+03,376.29111881844,
    -6.222899791379));
#122 = CARTESIAN_POINT('',(1.141567955047E+03,376.3124316752,
    -6.305295004062));
#123 = CARTESIAN_POINT('',(1.141659703361E+03,376.33402101349,
    -6.39111180623));
#124 = CARTESIAN_POINT('',(1.141749690138E+03,376.35581141454,
    -6.480395196395));
#125 = CARTESIAN_POINT('',(1.14183778017E+03,376.37772112158,
    -6.573190235154));
#126 = CARTESIAN_POINT('',(1.142026994241E+03,376.42596841829,
    -6.785066638496));
#127 = CARTESIAN_POINT('',(1.142127243862E+03,376.45232461033,
    -6.905726600565));
#128 = CARTESIAN_POINT('',(1.142224295692E+03,376.47857260691,
    -7.031578501111));
#129 = CARTESIAN_POINT('',(1.142317844101E+03,376.50453916159,
    -7.162666675632));
#130 = CARTESIAN_POINT('',(1.142407556854E+03,376.53003653468,
    -7.299022828993));
#131 = CARTESIAN_POINT('',(1.1424930748E+03,376.55486346903,
    -7.440665650897));
#132 = CARTESIAN_POINT('',(1.142669475386E+03,376.60704625409,
    -7.760908026425));
#133 = CARTESIAN_POINT('',(1.142758706873E+03,376.63409809699,
    -7.941834831785));
#134 = CARTESIAN_POINT('',(1.142840809315E+03,376.65953685751,
    -8.130013535935));
#135 = CARTESIAN_POINT('',(1.142914947138E+03,376.68293752916,
    -8.325013119347));
#136 = CARTESIAN_POINT('',(1.142980342085E+03,376.7038896495,
    -8.526339392731));
#137 = CARTESIAN_POINT('',(1.143036269398E+03,376.72201201387,
    -8.733435535311));
#138 = CARTESIAN_POINT('',(1.143143717999E+03,376.7571097108,
    -9.231543022799));
#139 = CARTESIAN_POINT('',(1.143186948418E+03,376.77149557894,
    -9.526580760528));
#140 = CARTESIAN_POINT('',(1.143209719612E+03,376.77917707362,
    -9.827330305594));
#141 = CARTESIAN_POINT('',(1.143211016878E+03,376.77961490093,
    -10.1301293694));
#142 = CARTESIAN_POINT('',(1.143190801334E+03,376.77278829989,
    -10.43124682032));
#143 = CARTESIAN_POINT('',(1.143150009913E+03,376.75919739045,
    -10.72701071796));
#144 = CARTESIAN_POINT('',(1.143046083868E+03,376.72519737405,
    -11.22885060655));
#145 = CARTESIAN_POINT('',(1.142991158274E+03,376.70736614876,
    -11.43864986555));
#146 = CARTESIAN_POINT('',(1.142926496513E+03,376.68660401476,
    -11.64267616881));
#147 = CARTESIAN_POINT('',(1.14285283736E+03,376.66329928228,
    -11.84033594021));
#148 = CARTESIAN_POINT('',(1.142770979569E+03,376.63787318801,
    -12.03110079001));
#149 = CARTESIAN_POINT('',(1.142681785928E+03,376.61076423986,
    -12.21450819245));
#150 = CARTESIAN_POINT('',(1.142504916581E+03,376.55831010217,
    -12.5394899263));
#151 = CARTESIAN_POINT('',(1.142418913058E+03,376.53327854901,
    -12.68340593061));
#152 = CARTESIAN_POINT('',(1.142328579586E+03,376.50754045477,
    -12.82191254776));
#153 = CARTESIAN_POINT('',(1.142234290667E+03,376.48130541589,
    -12.95502651677));
#154 = CARTESIAN_POINT('',(1.142136392813E+03,376.45476898441,
    -13.0827785299));
#155 = CARTESIAN_POINT('',(1.142035204882E+03,376.42811157976,
    -13.20521281828));
#156 = CARTESIAN_POINT('',(1.141845255219E+03,376.37958939673,
    -13.41884083775));
#157 = CARTESIAN_POINT('',(1.141757445555E+03,376.35770698383,
    -13.51174682187));
#158 = CARTESIAN_POINT('',(1.141667736682E+03,376.33593839884,
    -13.60114951194));
#159 = CARTESIAN_POINT('',(1.141576263802E+03,376.31436533594,
    -13.68709371858));
#160 = CARTESIAN_POINT('',(1.141483150081E+03,376.29306317436,
    -13.76962422908));
#161 = CARTESIAN_POINT('',(1.141388506668E+03,376.27210120607,
    -13.84878579544));
#162 = CARTESIAN_POINT('',(1.140897484217E+03,376.16702998883,
    -14.23638125578));
#163 = CARTESIAN_POINT('',(1.140477736901E+03,376.08920468565,
    -14.49245421626));
#164 = CARTESIAN_POINT('',(1.14004061198E+03,376.0226624299,
    -14.69507176286));
#165 = CARTESIAN_POINT('',(1.13959146936E+03,375.97056609315,
    -14.84615830971));
#166 = CARTESIAN_POINT('',(1.139134484869E+03,375.9349152417,
    -14.94706940425));
#167 = CARTESIAN_POINT('',(1.138673240771E+03,375.9167558417,
    -14.99843271682));
#168 = CARTESIAN_POINT('',(1.13820890184E+03,375.91620890789,
    -14.9999796889));
#169 = CARTESIAN_POINT('',(1.138206669587E+03,375.91620668965,
    -14.99998596307));
#170 = CARTESIAN_POINT('',(1.138204437333E+03,375.91620488247,
    -14.99999107455));
#171 = CARTESIAN_POINT('',(1.138202205078E+03,375.91620348637,
    -14.99999502333));
#172 = CARTESIAN_POINT('',(1.138199972821E+03,375.91620250134,
    -14.99999780942));
#173 = CARTESIAN_POINT('',(1.138197740563E+03,375.91620192738,
    -14.99999943281));
#174 = CARTESIAN_POINT('',(1.137732393156E+03,375.91616797222,
    -15.00009547252));
#175 = CARTESIAN_POINT('',(1.137270025951E+03,375.93382735975,
    -14.95014736146));
#176 = CARTESIAN_POINT('',(1.136811837171E+03,375.96907903663,
    -14.85044410334));
#177 = CARTESIAN_POINT('',(1.136361432999E+03,376.02088947138,
    -14.7003683597));
#178 = CARTESIAN_POINT('',(1.135923007393E+03,376.08726222691,
    -14.49857225412));
#179 = CARTESIAN_POINT('',(1.135501931455E+03,376.16503210988,
    -14.2431323976));
#180 = CARTESIAN_POINT('',(1.135009298461E+03,376.27015175548,
    -13.85611875642));
#181 = CARTESIAN_POINT('',(1.134914384445E+03,376.29111881845,
    -13.77710020858));
#182 = CARTESIAN_POINT('',(1.134820997737E+03,376.31243167522,
    -13.69470499585));
#183 = CARTESIAN_POINT('',(1.134729249423E+03,376.3340210135,
    -13.60888819372));
#184 = CARTESIAN_POINT('',(1.134639262646E+03,376.35581141453,
    -13.51960480365));
#185 = CARTESIAN_POINT('',(1.134551172614E+03,376.37772112156,
    -13.42680976496));
#186 = CARTESIAN_POINT('',(1.134361958542E+03,376.42596841829,
    -13.21493336149));
#187 = CARTESIAN_POINT('',(1.134261708921E+03,376.45232461033,
    -13.09427339943));
#188 = CARTESIAN_POINT('',(1.134164657092E+03,376.47857260691,
    -12.96842149889));
#189 = CARTESIAN_POINT('',(1.134071108683E+03,376.50453916159,
    -12.83733332437));
#190 = CARTESIAN_POINT('',(1.13398139593E+03,376.53003653468,
    -12.700977171));
#191 = CARTESIAN_POINT('',(1.133895877983E+03,376.55486346903,
    -12.55933434909));
#192 = CARTESIAN_POINT('',(1.133719477398E+03,376.60704625409,
    -12.23909197357));
#193 = CARTESIAN_POINT('',(1.133630245911E+03,376.63409809699,
    -12.05816516821));
#194 = CARTESIAN_POINT('',(1.133548143469E+03,376.65953685751,
    -11.86998646406));
#195 = CARTESIAN_POINT('',(1.133474005646E+03,376.68293752916,
    -11.67498688065));
#196 = CARTESIAN_POINT('',(1.133408610699E+03,376.7038896495,
    -11.47366060726));
#197 = CARTESIAN_POINT('',(1.133352683385E+03,376.72201201387,
    -11.26656446468));
#198 = CARTESIAN_POINT('',(1.133245234785E+03,376.7571097108,
    -10.7684569772));
#199 = CARTESIAN_POINT('',(1.133202004366E+03,376.77149557894,
    -10.47341923947));
#200 = CARTESIAN_POINT('',(1.133179233171E+03,376.77917707362,
    -10.1726696944));
#201 = CARTESIAN_POINT('',(1.133177935906E+03,376.77961490093,
    -9.869870630597));
#202 = CARTESIAN_POINT('',(1.133198151449E+03,376.77278829989,
    -9.568753179672));
#203 = CARTESIAN_POINT('',(1.133238942871E+03,376.75919739045,
    -9.272989282033));
#204 = CARTESIAN_POINT('',(1.133342868915E+03,376.72519737405,
    -8.77114939345));
#205 = CARTESIAN_POINT('',(1.13339779451E+03,376.70736614876,
    -8.561350134446));
#206 = CARTESIAN_POINT('',(1.133462456271E+03,376.68660401476,
    -8.357323831183));
#207 = CARTESIAN_POINT('',(1.133536115424E+03,376.66329928228,
    -8.159664059787));
#208 = CARTESIAN_POINT('',(1.133617973215E+03,376.63787318801,
    -7.968899209984));
#209 = CARTESIAN_POINT('',(1.133707166855E+03,376.61076423986,
    -7.785491807542));
#210 = CARTESIAN_POINT('',(1.133884036202E+03,376.55831010218,
    -7.460510073701));
#211 = CARTESIAN_POINT('',(1.133970039725E+03,376.53327854901,
    -7.316594069382));
#212 = CARTESIAN_POINT('',(1.134060373198E+03,376.50754045477,
    -7.178087452233));
#213 = CARTESIAN_POINT('',(1.134154662117E+03,376.48130541589,
    -7.044973483219));
#214 = CARTESIAN_POINT('',(1.134252559971E+03,376.45476898441,
    -6.917221470102));
#215 = CARTESIAN_POINT('',(1.134353747902E+03,376.42811157976,
    -6.794787181727));
#216 = CARTESIAN_POINT('',(1.134543697564E+03,376.37958939671,
    -6.581159162174));
#217 = CARTESIAN_POINT('',(1.134631507229E+03,376.35770698384,
    -6.488253178151));
#218 = CARTESIAN_POINT('',(1.134721216102E+03,376.33593839886,
    -6.398850488135));
#219 = CARTESIAN_POINT('',(1.134812688982E+03,376.31436533595,
    -6.312906281463));
#220 = CARTESIAN_POINT('',(1.134905802702E+03,376.29306317435,
    -6.230375770876));
#221 = CARTESIAN_POINT('',(1.135000446116E+03,376.27210120605,
    -6.151214204474));
#222 = CARTESIAN_POINT('',(1.135491468567E+03,376.16702998883,
    -5.763618744215));
#223 = CARTESIAN_POINT('',(1.135911215883E+03,376.08920468564,
    -5.507545783733));
#224 = CARTESIAN_POINT('',(1.136348340804E+03,376.0226624299,
    -5.304928237139));
#225 = CARTESIAN_POINT('',(1.136797483424E+03,375.97056609315,
    -5.153841690284));
#226 = CARTESIAN_POINT('',(1.137254467915E+03,375.9349152417,
    -5.052930595743));
#227 = CARTESIAN_POINT('',(1.137715712012E+03,375.9167558417,
    -5.001567283171));
#228 = CARTESIAN_POINT('',(1.13818019836E+03,375.91620873426,
    -5.000019819972));
#229 = CARTESIAN_POINT('',(1.138182578028E+03,375.91620639846,
    -5.000013213313));
#230 = CARTESIAN_POINT('',(1.138184957699E+03,375.91620452982,
    -5.000007927987));
#231 = CARTESIAN_POINT('',(1.138187337371E+03,375.91620312834,
    -5.000003963993));
#232 = CARTESIAN_POINT('',(1.138189717044E+03,375.91620219401,
    -5.000001321331));
#233 = CARTESIAN_POINT('',(1.138192096718E+03,375.91620172685,-5.));
#234 = CARTESIAN_POINT('',(1.138194476392E+03,375.91620172685,-5.));
#235 = PCURVE('',#31,#236);
#236 = DEFINITIONAL_REPRESENTATION('',(#237),#360);
#237 = B_SPLINE_CURVE_WITH_KNOTS('',7,(#238,#239,#240,#241,#242,#243,
    #244,#245,#246,#247,#248,#249,#250,#251,#252,#253,#254,#255,#256,
    #257,#258,#259,#260,#261,#262,#263,#264,#265,#266,#267,#268,#269,
    #270,#271,#272,#273,#274,#275,#276,#277,#278,#279,#280,#281,#282,
    #283,#284,#285,#286,#287,#288,#289,#290,#291,#292,#293,#294,#295,
    #296,#297,#298,#299,#300,#301,#302,#303,#304,#305,#306,#307,#308,
    #309,#310,#311,#312,#313,#314,#315,#316,#317,#318,#319,#320,#321,
    #322,#323,#324,#325,#326,#327,#328,#329,#330,#331,#332,#333,#334,
    #335,#336,#337,#338,#339,#340,#341,#342,#343,#344,#345,#346,#347,
    #348,#349,#350,#351,#352,#353,#354,#355,#356,#357,#358,#359),
  .UNSPECIFIED.,.T.,.F.,(8,6,6,6,6,6,6,6,6,6,6,6,6,6,6,6,6,6,6,6,8),(0.,
    0.118214000047,0.146962157042,0.181430839,0.222086185249,
    0.276841954556,0.317855311318,0.352721775147,0.381422815518,
    0.49940934196,0.499979286953,0.618222883479,0.646969097176,
    0.681435449101,0.722088047111,0.776840115011,0.817850699333,
    0.85271480624,0.881413906483,0.999392457422,1.),.UNSPECIFIED.);
#238 = CARTESIAN_POINT('',(5.052225889839,30.));
#239 = CARTESIAN_POINT('',(5.052225889839,30.462967365342));
#240 = CARTESIAN_POINT('',(5.048689537696,30.92518088078));
#241 = CARTESIAN_POINT('',(5.041637143637,31.383213543249));
#242 = CARTESIAN_POINT('',(5.031052970284,31.833462387543));
#243 = CARTESIAN_POINT('',(5.016896415889,32.271736992245));
#244 = CARTESIAN_POINT('',(4.999108003027,32.692670910207));
#245 = CARTESIAN_POINT('',(4.972379120931,33.185177930864));
#246 = CARTESIAN_POINT('',(4.966929016389,33.280091946778));
#247 = CARTESIAN_POINT('',(4.961255394741,33.373478654984));
#248 = CARTESIAN_POINT('',(4.955356256014,33.465226968733));
#249 = CARTESIAN_POINT('',(4.949229590634,33.555213746241));
#250 = CARTESIAN_POINT('',(4.942873358827,33.643303777878));
#251 = CARTESIAN_POINT('',(4.928386673456,33.832517849592));
#252 = CARTESIAN_POINT('',(4.920153331443,33.932767470301));
#253 = CARTESIAN_POINT('',(4.911583295457,34.02981929999));
#254 = CARTESIAN_POINT('',(4.902675137732,34.123367708828));
#255 = CARTESIAN_POINT('',(4.893428086925,34.213080461934));
#256 = CARTESIAN_POINT('',(4.883841963771,34.298598408649));
#257 = CARTESIAN_POINT('',(4.862210893305,34.474998994163));
#258 = CARTESIAN_POINT('',(4.850016060601,34.564230480991));
#259 = CARTESIAN_POINT('',(4.8373587743,34.64633292294));
#260 = CARTESIAN_POINT('',(4.824268287999,34.720470745906));
#261 = CARTESIAN_POINT('',(4.8107768663,34.785865692989));
#262 = CARTESIAN_POINT('',(4.796919697893,34.841793006438));
#263 = CARTESIAN_POINT('',(4.763630198886,34.949241607073));
#264 = CARTESIAN_POINT('',(4.743942227486,34.992472025798));
#265 = CARTESIAN_POINT('',(4.723894552323,35.015243220376));
#266 = CARTESIAN_POINT('',(4.703718400315,35.016540486018));
#267 = CARTESIAN_POINT('',(4.683647634015,34.996324942617));
#268 = CARTESIAN_POINT('',(4.663913867685,34.955533521249));
#269 = CARTESIAN_POINT('',(4.630381178831,34.851607476427));
#270 = CARTESIAN_POINT('',(4.616346212536,34.796681882286));
#271 = CARTESIAN_POINT('',(4.602677142172,34.732020120997));
#272 = CARTESIAN_POINT('',(4.589411419871,34.658360967726));
#273 = CARTESIAN_POINT('',(4.576583455291,34.576503176909));
#274 = CARTESIAN_POINT('',(4.564224529213,34.48730953667));
#275 = CARTESIAN_POINT('',(4.542278680312,34.310440189488));
#276 = CARTESIAN_POINT('',(4.532540957717,34.22443666664));
#277 = CARTESIAN_POINT('',(4.523150073537,34.134103193881));
#278 = CARTESIAN_POINT('',(4.514105994534,34.039814275068));
#279 = CARTESIAN_POINT('',(4.505408051842,33.941916420736));
#280 = CARTESIAN_POINT('',(4.497054872759,33.84072849011));
#281 = CARTESIAN_POINT('',(4.482450256601,33.650778827455));
#282 = CARTESIAN_POINT('',(4.476087244088,33.562969162805));
#283 = CARTESIAN_POINT('',(4.469953197023,33.473260290156));
#284 = CARTESIAN_POINT('',(4.464046086247,33.381787410176));
#285 = CARTESIAN_POINT('',(4.458363910843,33.288673689396));
#286 = CARTESIAN_POINT('',(4.452904677572,33.194030276381));
#287 = CARTESIAN_POINT('',(4.426132370025,32.703007824909));
#288 = CARTESIAN_POINT('',(4.408298032205,32.283260508954));
#289 = CARTESIAN_POINT('',(4.394083765124,31.846135588236));
#290 = CARTESIAN_POINT('',(4.38342973892,31.396992967833));
#291 = CARTESIAN_POINT('',(4.37629481976,30.940008476832));
#292 = CARTESIAN_POINT('',(4.37266289451,30.47876437946));
#293 = CARTESIAN_POINT('',(4.372553507142,30.014425447767));
#294 = CARTESIAN_POINT('',(4.372553063491,30.012193195599));
#295 = CARTESIAN_POINT('',(4.372552702055,30.009960941434));
#296 = CARTESIAN_POINT('',(4.372552422834,30.007728685732));
#297 = CARTESIAN_POINT('',(4.372552225828,30.005496428956));
#298 = CARTESIAN_POINT('',(4.372552111037,30.003264171565));
#299 = CARTESIAN_POINT('',(4.372545320004,29.537916764659));
#300 = CARTESIAN_POINT('',(4.376077182753,29.075549558831));
#301 = CARTESIAN_POINT('',(4.383127314745,28.617360779515));
#302 = CARTESIAN_POINT('',(4.393711452113,28.166956606728));
#303 = CARTESIAN_POINT('',(4.407870216492,27.728531000847));
#304 = CARTESIAN_POINT('',(4.425663121043,27.307455062971));
#305 = CARTESIAN_POINT('',(4.452398839835,26.814822069192));
#306 = CARTESIAN_POINT('',(4.457848944382,26.719908053177));
#307 = CARTESIAN_POINT('',(4.463522566034,26.626521344923));
#308 = CARTESIAN_POINT('',(4.469421704758,26.534773031229));
#309 = CARTESIAN_POINT('',(4.475548370132,26.444786253823));
#310 = CARTESIAN_POINT('',(4.481904601934,26.356696222229));
#311 = CARTESIAN_POINT('',(4.496391287314,26.167482150403));
#312 = CARTESIAN_POINT('',(4.504624629326,26.067232529699));
#313 = CARTESIAN_POINT('',(4.513194665312,25.970180700014));
#314 = CARTESIAN_POINT('',(4.522102823037,25.876632291175));
#315 = CARTESIAN_POINT('',(4.531349873845,25.786919538066));
#316 = CARTESIAN_POINT('',(4.540935996999,25.701401591347));
#317 = CARTESIAN_POINT('',(4.562567067465,25.525001005837));
#318 = CARTESIAN_POINT('',(4.574761900168,25.435769519009));
#319 = CARTESIAN_POINT('',(4.587419186469,25.35366707706));
#320 = CARTESIAN_POINT('',(4.600509672771,25.279529254094));
#321 = CARTESIAN_POINT('',(4.614001094469,25.214134307011));
#322 = CARTESIAN_POINT('',(4.627858262877,25.158206993562));
#323 = CARTESIAN_POINT('',(4.661147761883,25.050758392927));
#324 = CARTESIAN_POINT('',(4.680835733283,25.007527974202));
#325 = CARTESIAN_POINT('',(4.700883408447,24.984756779624));
#326 = CARTESIAN_POINT('',(4.721059560454,24.983459513982));
#327 = CARTESIAN_POINT('',(4.741130326755,25.003675057383));
#328 = CARTESIAN_POINT('',(4.760864093085,25.044466478751));
#329 = CARTESIAN_POINT('',(4.794396781938,25.148392523573));
#330 = CARTESIAN_POINT('',(4.808431748234,25.203318117714));
#331 = CARTESIAN_POINT('',(4.822100818598,25.267979879003));
#332 = CARTESIAN_POINT('',(4.835366540898,25.341639032274));
#333 = CARTESIAN_POINT('',(4.848194505478,25.423496823091));
#334 = CARTESIAN_POINT('',(4.860553431556,25.51269046333));
#335 = CARTESIAN_POINT('',(4.882499280456,25.689559810507));
#336 = CARTESIAN_POINT('',(4.892237003052,25.775563333359));
#337 = CARTESIAN_POINT('',(4.901627887233,25.865896806123));
#338 = CARTESIAN_POINT('',(4.910671966236,25.960185724937));
#339 = CARTESIAN_POINT('',(4.919369908927,26.058083579264));
#340 = CARTESIAN_POINT('',(4.92772308801,26.159271509884));
#341 = CARTESIAN_POINT('',(4.942327704173,26.349221172612));
#342 = CARTESIAN_POINT('',(4.94869071668,26.437030837182));
#343 = CARTESIAN_POINT('',(4.954824763741,26.526739709766));
#344 = CARTESIAN_POINT('',(4.960731874519,26.618212589765));
#345 = CARTESIAN_POINT('',(4.966414049929,26.711326310636));
#346 = CARTESIAN_POINT('',(4.971873283203,26.805969723724));
#347 = CARTESIAN_POINT('',(4.998645590745,27.29699217509));
#348 = CARTESIAN_POINT('',(5.016479928565,27.716739491046));
#349 = CARTESIAN_POINT('',(5.030694195646,28.153864411766));
#350 = CARTESIAN_POINT('',(5.041348221849,28.603007032164));
#351 = CARTESIAN_POINT('',(5.048483141009,29.059991523168));
#352 = CARTESIAN_POINT('',(5.052115066259,29.521235620541));
#353 = CARTESIAN_POINT('',(5.052224488355,29.985721968003));
#354 = CARTESIAN_POINT('',(5.052224955517,29.988101636276));
#355 = CARTESIAN_POINT('',(5.052225329245,29.990481306786));
#356 = CARTESIAN_POINT('',(5.052225609542,29.992860978971));
#357 = CARTESIAN_POINT('',(5.052225796407,29.995240652274));
#358 = CARTESIAN_POINT('',(5.052225889839,29.997620326137));
#359 = CARTESIAN_POINT('',(5.052225889839,30.));
#360 = ( GEOMETRIC_REPRESENTATION_CONTEXT(2) 
PARAMETRIC_REPRESENTATION_CONTEXT() REPRESENTATION_CONTEXT('2D SPACE',''
  ) );
#361 = PCURVE('',#362,#367);
#362 = CYLINDRICAL_SURFACE('',#363,5.);
#363 = AXIS2_PLACEMENT_3D('',#364,#365,#366);
#364 = CARTESIAN_POINT('',(1.138194476392E+03,374.77406610312,-10.));
#365 = DIRECTION('',(0.,1.,0.));
#366 = DIRECTION('',(0.,-0.,1.));
#367 = DEFINITIONAL_REPRESENTATION('',(#368),#491);
#368 = B_SPLINE_CURVE_WITH_KNOTS('',7,(#369,#370,#371,#372,#373,#374,
    #375,#376,#377,#378,#379,#380,#381,#382,#383,#384,#385,#386,#387,
    #388,#389,#390,#391,#392,#393,#394,#395,#396,#397,#398,#399,#400,
    #401,#402,#403,#404,#405,#406,#407,#408,#409,#410,#411,#412,#413,
    #414,#415,#416,#417,#418,#419,#420,#421,#422,#423,#424,#425,#426,
    #427,#428,#429,#430,#431,#432,#433,#434,#435,#436,#437,#438,#439,
    #440,#441,#442,#443,#444,#445,#446,#447,#448,#449,#450,#451,#452,
    #453,#454,#455,#456,#457,#458,#459,#460,#461,#462,#463,#464,#465,
    #466,#467,#468,#469,#470,#471,#472,#473,#474,#475,#476,#477,#478,
    #479,#480,#481,#482,#483,#484,#485,#486,#487,#488,#489,#490),
  .UNSPECIFIED.,.F.,.F.,(8,6,6,6,6,6,6,6,6,6,6,6,6,6,6,6,6,6,6,6,8),(0.,
    0.118214000047,0.146962157042,0.181430839,0.222086185249,
    0.276841954556,0.317855311318,0.352721775147,0.381422815518,
    0.49940934196,0.499979286953,0.618222883479,0.646969097176,
    0.681435449101,0.722088047111,0.776840115011,0.817850699333,
    0.85271480624,0.881413906483,0.999392457422,1.),.UNSPECIFIED.);
#369 = CARTESIAN_POINT('',(0.,1.142135623731));
#370 = CARTESIAN_POINT('',(9.259347306847E-02,1.142135623731));
#371 = CARTESIAN_POINT('',(0.185036082913,1.159817459121));
#372 = CARTESIAN_POINT('',(0.277939676531,1.195079029344));
#373 = CARTESIAN_POINT('',(0.371859498773,1.24688682618));
#374 = CARTESIAN_POINT('',(0.467387166693,1.313245630202));
#375 = CARTESIAN_POINT('',(0.565141040493,1.390992887329));
#376 = CARTESIAN_POINT('',(0.690403346428,1.496085652374));
#377 = CARTESIAN_POINT('',(0.71509369185,1.517052715317));
#378 = CARTESIAN_POINT('',(0.739985075032,1.538365572074));
#379 = CARTESIAN_POINT('',(0.765091238825,1.559954910365));
#380 = CARTESIAN_POINT('',(0.79042604515,1.581745311419));
#381 = CARTESIAN_POINT('',(0.816003861333,1.603655018464));
#382 = CARTESIAN_POINT('',(0.872817090507,1.651902315168));
#383 = CARTESIAN_POINT('',(0.904171483272,1.678258507205));
#384 = CARTESIAN_POINT('',(0.935922981245,1.704506503794));
#385 = CARTESIAN_POINT('',(0.968091275948,1.730473058471));
#386 = CARTESIAN_POINT('',(1.000696902573,1.75597043156));
#387 = CARTESIAN_POINT('',(1.033762248653,1.780797365905));
#388 = CARTESIAN_POINT('',(1.106884706394,1.832980150967));
#389 = CARTESIAN_POINT('',(1.147190152002,1.860031993867));
#390 = CARTESIAN_POINT('',(1.188179416891,1.885470754389));
#391 = CARTESIAN_POINT('',(1.229814239067,1.908871426034));
#392 = CARTESIAN_POINT('',(1.272065690386,1.929823546381));
#393 = CARTESIAN_POINT('',(1.314912289761,1.947945910745));
#394 = CARTESIAN_POINT('',(1.416825246909,1.983043607683));
#395 = CARTESIAN_POINT('',(1.476329141798,1.997429475817));
#396 = CARTESIAN_POINT('',(1.536413857831,2.005110970504));
#397 = CARTESIAN_POINT('',(1.596698018541,2.005548797813));
#398 = CARTESIAN_POINT('',(1.656818991454,1.998722196772));
#399 = CARTESIAN_POINT('',(1.716397097034,1.985131287326));
#400 = CARTESIAN_POINT('',(1.818894686579,1.951131270933));
#401 = CARTESIAN_POINT('',(1.86221043332,1.933300045644));
#402 = CARTESIAN_POINT('',(1.9049284264,1.912537911643));
#403 = CARTESIAN_POINT('',(1.947024442138,1.889233179156));
#404 = CARTESIAN_POINT('',(1.988466534288,1.863807084892));
#405 = CARTESIAN_POINT('',(2.02921287205,1.836698136737));
#406 = CARTESIAN_POINT('',(2.103211762126,1.784243999053));
#407 = CARTESIAN_POINT('',(2.136715776761,1.759212445886));
#408 = CARTESIAN_POINT('',(2.16974765015,1.733474351646));
#409 = CARTESIAN_POINT('',(2.202330380747,1.707239312772));
#410 = CARTESIAN_POINT('',(2.234484998849,1.680702881285));
#411 = CARTESIAN_POINT('',(2.266231628146,1.654045476641));
#412 = CARTESIAN_POINT('',(2.323404280716,1.60552329361));
#413 = CARTESIAN_POINT('',(2.348959675927,1.583640880712));
#414 = CARTESIAN_POINT('',(2.374271941501,1.56187229572));
#415 = CARTESIAN_POINT('',(2.399355395832,1.540299232818));
#416 = CARTESIAN_POINT('',(2.424223851325,1.518997071235));
#417 = CARTESIAN_POINT('',(2.448890998621,1.498035102951));
#418 = CARTESIAN_POINT('',(2.574004273492,1.392963885711));
#419 = CARTESIAN_POINT('',(2.671630446206,1.315138582524));
#420 = CARTESIAN_POINT('',(2.767024649762,1.248596326777));
#421 = CARTESIAN_POINT('',(2.860803332274,1.196499990026));
#422 = CARTESIAN_POINT('',(2.953556819236,1.160849138583));
#423 = CARTESIAN_POINT('',(3.045839258631,1.142689738581));
#424 = CARTESIAN_POINT('',(3.138707560351,1.142142804774));
#425 = CARTESIAN_POINT('',(3.139154012488,1.142140586527));
#426 = CARTESIAN_POINT('',(3.139600464394,1.142138779351));
#427 = CARTESIAN_POINT('',(3.140046916124,1.142137383248));
#428 = CARTESIAN_POINT('',(3.14049336773,1.142136398217));
#429 = CARTESIAN_POINT('',(3.140939819266,1.142135824261));
#430 = CARTESIAN_POINT('',(3.234009302629,1.142101869098));
#431 = CARTESIAN_POINT('',(3.326480586693,1.159761256625));
#432 = CARTESIAN_POINT('',(3.419412529404,1.195012933507));
#433 = CARTESIAN_POINT('',(3.513360822099,1.246823368259));
#434 = CARTESIAN_POINT('',(3.608917578112,1.313196123791));
#435 = CARTESIAN_POINT('',(3.706701654558,1.390966006759));
#436 = CARTESIAN_POINT('',(3.831996000003,1.496085652362));
#437 = CARTESIAN_POINT('',(3.856686345451,1.517052715327));
#438 = CARTESIAN_POINT('',(3.881577728647,1.538365572095));
#439 = CARTESIAN_POINT('',(3.906683892427,1.559954910375));
#440 = CARTESIAN_POINT('',(3.932018698723,1.581745311405));
#441 = CARTESIAN_POINT('',(3.957596514891,1.603655018436));
#442 = CARTESIAN_POINT('',(4.014409744098,1.651902315169));
#443 = CARTESIAN_POINT('',(4.045764136862,1.678258507205));
#444 = CARTESIAN_POINT('',(4.077515634834,1.704506503793));
#445 = CARTESIAN_POINT('',(4.109683929537,1.73047305847));
#446 = CARTESIAN_POINT('',(4.142289556163,1.75597043156));
#447 = CARTESIAN_POINT('',(4.175354902244,1.780797365906));
#448 = CARTESIAN_POINT('',(4.248477359984,1.832980150967));
#449 = CARTESIAN_POINT('',(4.288782805591,1.860031993867));
#450 = CARTESIAN_POINT('',(4.329772070481,1.885470754389));
#451 = CARTESIAN_POINT('',(4.371406892656,1.908871426034));
#452 = CARTESIAN_POINT('',(4.413658343975,1.929823546381));
#453 = CARTESIAN_POINT('',(4.45650494335,1.947945910745));
#454 = CARTESIAN_POINT('',(4.558417900499,1.983043607683));
#455 = CARTESIAN_POINT('',(4.617921795388,1.997429475817));
#456 = CARTESIAN_POINT('',(4.678006511421,2.005110970504));
#457 = CARTESIAN_POINT('',(4.73829067213,2.005548797813));
#458 = CARTESIAN_POINT('',(4.798411645044,1.998722196772));
#459 = CARTESIAN_POINT('',(4.857989750623,1.985131287326));
#460 = CARTESIAN_POINT('',(4.960487340169,1.951131270933));
#461 = CARTESIAN_POINT('',(5.00380308691,1.933300045644));
#462 = CARTESIAN_POINT('',(5.04652107999,1.912537911643));
#463 = CARTESIAN_POINT('',(5.088617095728,1.889233179156));
#464 = CARTESIAN_POINT('',(5.130059187877,1.863807084892));
#465 = CARTESIAN_POINT('',(5.17080552564,1.836698136737));
#466 = CARTESIAN_POINT('',(5.244804415713,1.784243999055));
#467 = CARTESIAN_POINT('',(5.27830843035,1.759212445887));
#468 = CARTESIAN_POINT('',(5.311340303742,1.733474351645));
#469 = CARTESIAN_POINT('',(5.343923034339,1.707239312771));
#470 = CARTESIAN_POINT('',(5.376077652439,1.680702881286));
#471 = CARTESIAN_POINT('',(5.407824281734,1.654045476642));
#472 = CARTESIAN_POINT('',(5.464996934326,1.605523293593));
#473 = CARTESIAN_POINT('',(5.490552329512,1.583640880717));
#474 = CARTESIAN_POINT('',(5.515864595068,1.56187229574));
#475 = CARTESIAN_POINT('',(5.540948049406,1.54029923283));
#476 = CARTESIAN_POINT('',(5.565816504924,1.518997071227));
#477 = CARTESIAN_POINT('',(5.590483652237,1.498035102928));
#478 = CARTESIAN_POINT('',(5.715596927082,1.392963885711));
#479 = CARTESIAN_POINT('',(5.813223099795,1.315138582524));
#480 = CARTESIAN_POINT('',(5.908617303353,1.248596326777));
#481 = CARTESIAN_POINT('',(6.002395985863,1.196499990027));
#482 = CARTESIAN_POINT('',(6.095149472826,1.160849138583));
#483 = CARTESIAN_POINT('',(6.187431912221,1.142689738581));
#484 = CARTESIAN_POINT('',(6.280329697258,1.142142631136));
#485 = CARTESIAN_POINT('',(6.280805632674,1.142140295338));
#486 = CARTESIAN_POINT('',(6.281281567832,1.142138426697));
#487 = CARTESIAN_POINT('',(6.281757502798,1.142137025214));
#488 = CARTESIAN_POINT('',(6.282233437634,1.142136090892));
#489 = CARTESIAN_POINT('',(6.282709372407,1.142135623731));
#490 = CARTESIAN_POINT('',(6.28318530718,1.142135623731));
#491 = ( GEOMETRIC_REPRESENTATION_CONTEXT(2) 
PARAMETRIC_REPRESENTATION_CONTEXT() REPRESENTATION_CONTEXT('2D SPACE',''
  ) );
#492 = ADVANCED_FACE('',(#493,#607),#43,.F.);
#493 = FACE_BOUND('',#494,.F.);
#494 = EDGE_LOOP('',(#495,#525,#553,#581));
#495 = ORIENTED_EDGE('',*,*,#496,.F.);
#496 = EDGE_CURVE('',#497,#499,#501,.T.);
#497 = VERTEX_POINT('',#498);
#498 = CARTESIAN_POINT('',(1.220194476392E+03,339.77406610312,-32.));
#499 = VERTEX_POINT('',#500);
#500 = CARTESIAN_POINT('',(1.220194476392E+03,339.77406610312,12.));
#501 = SURFACE_CURVE('',#502,(#506,#513),.PCURVE_S1.);
#502 = LINE('',#503,#504);
#503 = CARTESIAN_POINT('',(1.220194476392E+03,339.77406610312,-32.));
#504 = VECTOR('',#505,1.);
#505 = DIRECTION('',(0.,0.,1.));
#506 = PCURVE('',#43,#507);
#507 = DEFINITIONAL_REPRESENTATION('',(#508),#512);
#508 = LINE('',#509,#510);
#509 = CARTESIAN_POINT('',(0.,0.));
#510 = VECTOR('',#511,1.);
#511 = DIRECTION('',(1.,0.));
#512 = ( GEOMETRIC_REPRESENTATION_CONTEXT(2) 
PARAMETRIC_REPRESENTATION_CONTEXT() REPRESENTATION_CONTEXT('2D SPACE',''
  ) );
#513 = PCURVE('',#514,#519);
#514 = PLANE('',#515);
#515 = AXIS2_PLACEMENT_3D('',#516,#517,#518);
#516 = CARTESIAN_POINT('',(1.220194476392E+03,339.77406610312,-32.));
#517 = DIRECTION('',(-0.,1.,0.));
#518 = DIRECTION('',(0.,0.,1.));
#519 = DEFINITIONAL_REPRESENTATION('',(#520),#524);
#520 = LINE('',#521,#522);
#521 = CARTESIAN_POINT('',(0.,0.));
#522 = VECTOR('',#523,1.);
#523 = DIRECTION('',(1.,0.));
#524 = ( GEOMETRIC_REPRESENTATION_CONTEXT(2) 
PARAMETRIC_REPRESENTATION_CONTEXT() REPRESENTATION_CONTEXT('2D SPACE',''
  ) );
#525 = ORIENTED_EDGE('',*,*,#526,.T.);
#526 = EDGE_CURVE('',#497,#527,#529,.T.);
#527 = VERTEX_POINT('',#528);
#528 = CARTESIAN_POINT('',(1.220194476392E+03,383.77406610312,-32.));
#529 = SURFACE_CURVE('',#530,(#534,#541),.PCURVE_S1.);
#530 = LINE('',#531,#532);
#531 = CARTESIAN_POINT('',(1.220194476392E+03,339.77406610312,-32.));
#532 = VECTOR('',#533,1.);
#533 = DIRECTION('',(-0.,1.,0.));
#534 = PCURVE('',#43,#535);
#535 = DEFINITIONAL_REPRESENTATION('',(#536),#540);
#536 = LINE('',#537,#538);
#537 = CARTESIAN_POINT('',(0.,0.));
#538 = VECTOR('',#539,1.);
#539 = DIRECTION('',(0.,-1.));
#540 = ( GEOMETRIC_REPRESENTATION_CONTEXT(2) 
PARAMETRIC_REPRESENTATION_CONTEXT() REPRESENTATION_CONTEXT('2D SPACE',''
  ) );
#541 = PCURVE('',#542,#547);
#542 = PLANE('',#543);
#543 = AXIS2_PLACEMENT_3D('',#544,#545,#546);
#544 = CARTESIAN_POINT('',(1.220194476392E+03,339.77406610312,-32.));
#545 = DIRECTION('',(0.,0.,1.));
#546 = DIRECTION('',(1.,0.,-0.));
#547 = DEFINITIONAL_REPRESENTATION('',(#548),#552);
#548 = LINE('',#549,#550);
#549 = CARTESIAN_POINT('',(0.,0.));
#550 = VECTOR('',#551,1.);
#551 = DIRECTION('',(0.,1.));
#552 = ( GEOMETRIC_REPRESENTATION_CONTEXT(2) 
PARAMETRIC_REPRESENTATION_CONTEXT() REPRESENTATION_CONTEXT('2D SPACE',''
  ) );
#553 = ORIENTED_EDGE('',*,*,#554,.T.);
#554 = EDGE_CURVE('',#527,#555,#557,.T.);
#555 = VERTEX_POINT('',#556);
#556 = CARTESIAN_POINT('',(1.220194476392E+03,383.77406610312,12.));
#557 = SURFACE_CURVE('',#558,(#562,#569),.PCURVE_S1.);
#558 = LINE('',#559,#560);
#559 = CARTESIAN_POINT('',(1.220194476392E+03,383.77406610312,-32.));
#560 = VECTOR('',#561,1.);
#561 = DIRECTION('',(0.,0.,1.));
#562 = PCURVE('',#43,#563);
#563 = DEFINITIONAL_REPRESENTATION('',(#564),#568);
#564 = LINE('',#565,#566);
#565 = CARTESIAN_POINT('',(0.,-44.));
#566 = VECTOR('',#567,1.);
#567 = DIRECTION('',(1.,0.));
#568 = ( GEOMETRIC_REPRESENTATION_CONTEXT(2) 
PARAMETRIC_REPRESENTATION_CONTEXT() REPRESENTATION_CONTEXT('2D SPACE',''
  ) );
#569 = PCURVE('',#570,#575);
#570 = PLANE('',#571);
#571 = AXIS2_PLACEMENT_3D('',#572,#573,#574);
#572 = CARTESIAN_POINT('',(1.220194476392E+03,383.77406610312,-32.));
#573 = DIRECTION('',(-0.,1.,0.));
#574 = DIRECTION('',(0.,0.,1.));
#575 = DEFINITIONAL_REPRESENTATION('',(#576),#580);
#576 = LINE('',#577,#578);
#577 = CARTESIAN_POINT('',(0.,0.));
#578 = VECTOR('',#579,1.);
#579 = DIRECTION('',(1.,0.));
#580 = ( GEOMETRIC_REPRESENTATION_CONTEXT(2) 
PARAMETRIC_REPRESENTATION_CONTEXT() REPRESENTATION_CONTEXT('2D SPACE',''
  ) );
#581 = ORIENTED_EDGE('',*,*,#582,.F.);
#582 = EDGE_CURVE('',#499,#555,#583,.T.);
#583 = SURFACE_CURVE('',#584,(#588,#595),.PCURVE_S1.);
#584 = LINE('',#585,#586);
#585 = CARTESIAN_POINT('',(1.220194476392E+03,339.77406610312,12.));
#586 = VECTOR('',#587,1.);
#587 = DIRECTION('',(-0.,1.,0.));
#588 = PCURVE('',#43,#589);
#589 = DEFINITIONAL_REPRESENTATION('',(#590),#594);
#590 = LINE('',#591,#592);
#591 = CARTESIAN_POINT('',(44.,0.));
#592 = VECTOR('',#593,1.);
#593 = DIRECTION('',(0.,-1.));
#594 = ( GEOMETRIC_REPRESENTATION_CONTEXT(2) 
PARAMETRIC_REPRESENTATION_CONTEXT() REPRESENTATION_CONTEXT('2D SPACE',''
  ) );
#595 = PCURVE('',#596,#601);
#596 = PLANE('',#597);
#597 = AXIS2_PLACEMENT_3D('',#598,#599,#600);
#598 = CARTESIAN_POINT('',(1.220194476392E+03,339.77406610312,12.));
#599 = DIRECTION('',(0.,0.,1.));
#600 = DIRECTION('',(1.,0.,-0.));
#601 = DEFINITIONAL_REPRESENTATION('',(#602),#606);
#602 = LINE('',#603,#604);
#603 = CARTESIAN_POINT('',(0.,0.));
#604 = VECTOR('',#605,1.);
#605 = DIRECTION('',(0.,1.));
#606 = ( GEOMETRIC_REPRESENTATION_CONTEXT(2) 
PARAMETRIC_REPRESENTATION_CONTEXT() REPRESENTATION_CONTEXT('2D SPACE',''
  ) );
#607 = FACE_BOUND('',#608,.F.);
#608 = EDGE_LOOP('',(#609));
#609 = ORIENTED_EDGE('',*,*,#21,.F.);
#610 = ADVANCED_FACE('',(#611),#93,.F.);
#611 = FACE_BOUND('',#612,.T.);
#612 = EDGE_LOOP('',(#613));
#613 = ORIENTED_EDGE('',*,*,#78,.F.);
#614 = ADVANCED_FACE('',(#615),#362,.T.);
#615 = FACE_BOUND('',#616,.T.);
#616 = EDGE_LOOP('',(#617,#646,#667,#668));
#617 = ORIENTED_EDGE('',*,*,#618,.F.);
#618 = EDGE_CURVE('',#619,#619,#621,.T.);
#619 = VERTEX_POINT('',#620);
#620 = CARTESIAN_POINT('',(1.138194476392E+03,391.77406610312,-5.));
#621 = SURFACE_CURVE('',#622,(#627,#634),.PCURVE_S1.);
#622 = CIRCLE('',#623,5.);
#623 = AXIS2_PLACEMENT_3D('',#624,#625,#626);
#624 = CARTESIAN_POINT('',(1.138194476392E+03,391.77406610312,-10.));
#625 = DIRECTION('',(0.,1.,0.));
#626 = DIRECTION('',(0.,-0.,1.));
#627 = PCURVE('',#362,#628);
#628 = DEFINITIONAL_REPRESENTATION('',(#629),#633);
#629 = LINE('',#630,#631);
#630 = CARTESIAN_POINT('',(0.,17.));
#631 = VECTOR('',#632,1.);
#632 = DIRECTION('',(1.,0.));
#633 = ( GEOMETRIC_REPRESENTATION_CONTEXT(2) 
PARAMETRIC_REPRESENTATION_CONTEXT() REPRESENTATION_CONTEXT('2D SPACE',''
  ) );
#634 = PCURVE('',#635,#640);
#635 = PLANE('',#636);
#636 = AXIS2_PLACEMENT_3D('',#637,#638,#639);
#637 = CARTESIAN_POINT('',(1.138194476392E+03,391.77406610312,-10.));
#638 = DIRECTION('',(0.,1.,0.));
#639 = DIRECTION('',(0.,-0.,1.));
#640 = DEFINITIONAL_REPRESENTATION('',(#641),#645);
#641 = CIRCLE('',#642,5.);
#642 = AXIS2_PLACEMENT_2D('',#643,#644);
#643 = CARTESIAN_POINT('',(0.,0.));
#644 = DIRECTION('',(1.,0.));
#645 = ( GEOMETRIC_REPRESENTATION_CONTEXT(2) 
PARAMETRIC_REPRESENTATION_CONTEXT() REPRESENTATION_CONTEXT('2D SPACE',''
  ) );
#646 = ORIENTED_EDGE('',*,*,#647,.F.);
#647 = EDGE_CURVE('',#109,#619,#648,.T.);
#648 = SEAM_CURVE('',#649,(#653,#660),.PCURVE_S1.);
#649 = LINE('',#650,#651);
#650 = CARTESIAN_POINT('',(1.138194476392E+03,374.77406610312,-5.));
#651 = VECTOR('',#652,1.);
#652 = DIRECTION('',(0.,1.,0.));
#653 = PCURVE('',#362,#654);
#654 = DEFINITIONAL_REPRESENTATION('',(#655),#659);
#655 = LINE('',#656,#657);
#656 = CARTESIAN_POINT('',(6.28318530718,-0.));
#657 = VECTOR('',#658,1.);
#658 = DIRECTION('',(0.,1.));
#659 = ( GEOMETRIC_REPRESENTATION_CONTEXT(2) 
PARAMETRIC_REPRESENTATION_CONTEXT() REPRESENTATION_CONTEXT('2D SPACE',''
  ) );
#660 = PCURVE('',#362,#661);
#661 = DEFINITIONAL_REPRESENTATION('',(#662),#666);
#662 = LINE('',#663,#664);
#663 = CARTESIAN_POINT('',(0.,-0.));
#664 = VECTOR('',#665,1.);
#665 = DIRECTION('',(0.,1.));
#666 = ( GEOMETRIC_REPRESENTATION_CONTEXT(2) 
PARAMETRIC_REPRESENTATION_CONTEXT() REPRESENTATION_CONTEXT('2D SPACE',''
  ) );
#667 = ORIENTED_EDGE('',*,*,#108,.T.);
#668 = ORIENTED_EDGE('',*,*,#647,.T.);
#669 = ADVANCED_FACE('',(#670),#514,.F.);
#670 = FACE_BOUND('',#671,.F.);
#671 = EDGE_LOOP('',(#672,#695,#696,#719));
#672 = ORIENTED_EDGE('',*,*,#673,.F.);
#673 = EDGE_CURVE('',#497,#674,#676,.T.);
#674 = VERTEX_POINT('',#675);
#675 = CARTESIAN_POINT('',(1.228194476392E+03,339.77406610312,-32.));
#676 = SURFACE_CURVE('',#677,(#681,#688),.PCURVE_S1.);
#677 = LINE('',#678,#679);
#678 = CARTESIAN_POINT('',(1.220194476392E+03,339.77406610312,-32.));
#679 = VECTOR('',#680,1.);
#680 = DIRECTION('',(1.,0.,-0.));
#681 = PCURVE('',#514,#682);
#682 = DEFINITIONAL_REPRESENTATION('',(#683),#687);
#683 = LINE('',#684,#685);
#684 = CARTESIAN_POINT('',(0.,0.));
#685 = VECTOR('',#686,1.);
#686 = DIRECTION('',(0.,1.));
#687 = ( GEOMETRIC_REPRESENTATION_CONTEXT(2) 
PARAMETRIC_REPRESENTATION_CONTEXT() REPRESENTATION_CONTEXT('2D SPACE',''
  ) );
#688 = PCURVE('',#542,#689);
#689 = DEFINITIONAL_REPRESENTATION('',(#690),#694);
#690 = LINE('',#691,#692);
#691 = CARTESIAN_POINT('',(0.,0.));
#692 = VECTOR('',#693,1.);
#693 = DIRECTION('',(1.,0.));
#694 = ( GEOMETRIC_REPRESENTATION_CONTEXT(2) 
PARAMETRIC_REPRESENTATION_CONTEXT() REPRESENTATION_CONTEXT('2D SPACE',''
  ) );
#695 = ORIENTED_EDGE('',*,*,#496,.T.);
#696 = ORIENTED_EDGE('',*,*,#697,.T.);
#697 = EDGE_CURVE('',#499,#698,#700,.T.);
#698 = VERTEX_POINT('',#699);
#699 = CARTESIAN_POINT('',(1.228194476392E+03,339.77406610312,12.));
#700 = SURFACE_CURVE('',#701,(#705,#712),.PCURVE_S1.);
#701 = LINE('',#702,#703);
#702 = CARTESIAN_POINT('',(1.220194476392E+03,339.77406610312,12.));
#703 = VECTOR('',#704,1.);
#704 = DIRECTION('',(1.,0.,-0.));
#705 = PCURVE('',#514,#706);
#706 = DEFINITIONAL_REPRESENTATION('',(#707),#711);
#707 = LINE('',#708,#709);
#708 = CARTESIAN_POINT('',(44.,0.));
#709 = VECTOR('',#710,1.);
#710 = DIRECTION('',(0.,1.));
#711 = ( GEOMETRIC_REPRESENTATION_CONTEXT(2) 
PARAMETRIC_REPRESENTATION_CONTEXT() REPRESENTATION_CONTEXT('2D SPACE',''
  ) );
#712 = PCURVE('',#596,#713);
#713 = DEFINITIONAL_REPRESENTATION('',(#714),#718);
#714 = LINE('',#715,#716);
#715 = CARTESIAN_POINT('',(0.,0.));
#716 = VECTOR('',#717,1.);
#717 = DIRECTION('',(1.,0.));
#718 = ( GEOMETRIC_REPRESENTATION_CONTEXT(2) 
PARAMETRIC_REPRESENTATION_CONTEXT() REPRESENTATION_CONTEXT('2D SPACE',''
  ) );
#719 = ORIENTED_EDGE('',*,*,#720,.F.);
#720 = EDGE_CURVE('',#674,#698,#721,.T.);
#721 = SURFACE_CURVE('',#722,(#726,#733),.PCURVE_S1.);
#722 = LINE('',#723,#724);
#723 = CARTESIAN_POINT('',(1.228194476392E+03,339.77406610312,-32.));
#724 = VECTOR('',#725,1.);
#725 = DIRECTION('',(0.,0.,1.));
#726 = PCURVE('',#514,#727);
#727 = DEFINITIONAL_REPRESENTATION('',(#728),#732);
#728 = LINE('',#729,#730);
#729 = CARTESIAN_POINT('',(0.,8.));
#730 = VECTOR('',#731,1.);
#731 = DIRECTION('',(1.,0.));
#732 = ( GEOMETRIC_REPRESENTATION_CONTEXT(2) 
PARAMETRIC_REPRESENTATION_CONTEXT() REPRESENTATION_CONTEXT('2D SPACE',''
  ) );
#733 = PCURVE('',#734,#739);
#734 = PLANE('',#735);
#735 = AXIS2_PLACEMENT_3D('',#736,#737,#738);
#736 = CARTESIAN_POINT('',(1.228194476392E+03,339.77406610312,-32.));
#737 = DIRECTION('',(1.,0.,-0.));
#738 = DIRECTION('',(0.,0.,1.));
#739 = DEFINITIONAL_REPRESENTATION('',(#740),#744);
#740 = LINE('',#741,#742);
#741 = CARTESIAN_POINT('',(0.,0.));
#742 = VECTOR('',#743,1.);
#743 = DIRECTION('',(1.,0.));
#744 = ( GEOMETRIC_REPRESENTATION_CONTEXT(2) 
PARAMETRIC_REPRESENTATION_CONTEXT() REPRESENTATION_CONTEXT('2D SPACE',''
  ) );
#745 = ADVANCED_FACE('',(#746),#596,.T.);
#746 = FACE_BOUND('',#747,.T.);
#747 = EDGE_LOOP('',(#748,#749,#750,#773));
#748 = ORIENTED_EDGE('',*,*,#582,.F.);
#749 = ORIENTED_EDGE('',*,*,#697,.T.);
#750 = ORIENTED_EDGE('',*,*,#751,.T.);
#751 = EDGE_CURVE('',#698,#752,#754,.T.);
#752 = VERTEX_POINT('',#753);
#753 = CARTESIAN_POINT('',(1.228194476392E+03,383.77406610312,12.));
#754 = SURFACE_CURVE('',#755,(#759,#766),.PCURVE_S1.);
#755 = LINE('',#756,#757);
#756 = CARTESIAN_POINT('',(1.228194476392E+03,339.77406610312,12.));
#757 = VECTOR('',#758,1.);
#758 = DIRECTION('',(-0.,1.,0.));
#759 = PCURVE('',#596,#760);
#760 = DEFINITIONAL_REPRESENTATION('',(#761),#765);
#761 = LINE('',#762,#763);
#762 = CARTESIAN_POINT('',(8.,0.));
#763 = VECTOR('',#764,1.);
#764 = DIRECTION('',(0.,1.));
#765 = ( GEOMETRIC_REPRESENTATION_CONTEXT(2) 
PARAMETRIC_REPRESENTATION_CONTEXT() REPRESENTATION_CONTEXT('2D SPACE',''
  ) );
#766 = PCURVE('',#734,#767);
#767 = DEFINITIONAL_REPRESENTATION('',(#768),#772);
#768 = LINE('',#769,#770);
#769 = CARTESIAN_POINT('',(44.,0.));
#770 = VECTOR('',#771,1.);
#771 = DIRECTION('',(0.,-1.));
#772 = ( GEOMETRIC_REPRESENTATION_CONTEXT(2) 
PARAMETRIC_REPRESENTATION_CONTEXT() REPRESENTATION_CONTEXT('2D SPACE',''
  ) );
#773 = ORIENTED_EDGE('',*,*,#774,.F.);
#774 = EDGE_CURVE('',#555,#752,#775,.T.);
#775 = SURFACE_CURVE('',#776,(#780,#787),.PCURVE_S1.);
#776 = LINE('',#777,#778);
#777 = CARTESIAN_POINT('',(1.220194476392E+03,383.77406610312,12.));
#778 = VECTOR('',#779,1.);
#779 = DIRECTION('',(1.,0.,-0.));
#780 = PCURVE('',#596,#781);
#781 = DEFINITIONAL_REPRESENTATION('',(#782),#786);
#782 = LINE('',#783,#784);
#783 = CARTESIAN_POINT('',(0.,44.));
#784 = VECTOR('',#785,1.);
#785 = DIRECTION('',(1.,0.));
#786 = ( GEOMETRIC_REPRESENTATION_CONTEXT(2) 
PARAMETRIC_REPRESENTATION_CONTEXT() REPRESENTATION_CONTEXT('2D SPACE',''
  ) );
#787 = PCURVE('',#570,#788);
#788 = DEFINITIONAL_REPRESENTATION('',(#789),#793);
#789 = LINE('',#790,#791);
#790 = CARTESIAN_POINT('',(44.,0.));
#791 = VECTOR('',#792,1.);
#792 = DIRECTION('',(0.,1.));
#793 = ( GEOMETRIC_REPRESENTATION_CONTEXT(2) 
PARAMETRIC_REPRESENTATION_CONTEXT() REPRESENTATION_CONTEXT('2D SPACE',''
  ) );
#794 = ADVANCED_FACE('',(#795),#542,.F.);
#795 = FACE_BOUND('',#796,.F.);
#796 = EDGE_LOOP('',(#797,#798,#799,#822));
#797 = ORIENTED_EDGE('',*,*,#526,.F.);
#798 = ORIENTED_EDGE('',*,*,#673,.T.);
#799 = ORIENTED_EDGE('',*,*,#800,.T.);
#800 = EDGE_CURVE('',#674,#801,#803,.T.);
#801 = VERTEX_POINT('',#802);
#802 = CARTESIAN_POINT('',(1.228194476392E+03,383.77406610312,-32.));
#803 = SURFACE_CURVE('',#804,(#808,#815),.PCURVE_S1.);
#804 = LINE('',#805,#806);
#805 = CARTESIAN_POINT('',(1.228194476392E+03,339.77406610312,-32.));
#806 = VECTOR('',#807,1.);
#807 = DIRECTION('',(-0.,1.,0.));
#808 = PCURVE('',#542,#809);
#809 = DEFINITIONAL_REPRESENTATION('',(#810),#814);
#810 = LINE('',#811,#812);
#811 = CARTESIAN_POINT('',(8.,0.));
#812 = VECTOR('',#813,1.);
#813 = DIRECTION('',(0.,1.));
#814 = ( GEOMETRIC_REPRESENTATION_CONTEXT(2) 
PARAMETRIC_REPRESENTATION_CONTEXT() REPRESENTATION_CONTEXT('2D SPACE',''
  ) );
#815 = PCURVE('',#734,#816);
#816 = DEFINITIONAL_REPRESENTATION('',(#817),#821);
#817 = LINE('',#818,#819);
#818 = CARTESIAN_POINT('',(0.,0.));
#819 = VECTOR('',#820,1.);
#820 = DIRECTION('',(0.,-1.));
#821 = ( GEOMETRIC_REPRESENTATION_CONTEXT(2) 
PARAMETRIC_REPRESENTATION_CONTEXT() REPRESENTATION_CONTEXT('2D SPACE',''
  ) );
#822 = ORIENTED_EDGE('',*,*,#823,.F.);
#823 = EDGE_CURVE('',#527,#801,#824,.T.);
#824 = SURFACE_CURVE('',#825,(#829,#836),.PCURVE_S1.);
#825 = LINE('',#826,#827);
#826 = CARTESIAN_POINT('',(1.220194476392E+03,383.77406610312,-32.));
#827 = VECTOR('',#828,1.);
#828 = DIRECTION('',(1.,0.,-0.));
#829 = PCURVE('',#542,#830);
#830 = DEFINITIONAL_REPRESENTATION('',(#831),#835);
#831 = LINE('',#832,#833);
#832 = CARTESIAN_POINT('',(0.,44.));
#833 = VECTOR('',#834,1.);
#834 = DIRECTION('',(1.,0.));
#835 = ( GEOMETRIC_REPRESENTATION_CONTEXT(2) 
PARAMETRIC_REPRESENTATION_CONTEXT() REPRESENTATION_CONTEXT('2D SPACE',''
  ) );
#836 = PCURVE('',#570,#837);
#837 = DEFINITIONAL_REPRESENTATION('',(#838),#842);
#838 = LINE('',#839,#840);
#839 = CARTESIAN_POINT('',(0.,0.));
#840 = VECTOR('',#841,1.);
#841 = DIRECTION('',(0.,1.));
#842 = ( GEOMETRIC_REPRESENTATION_CONTEXT(2) 
PARAMETRIC_REPRESENTATION_CONTEXT() REPRESENTATION_CONTEXT('2D SPACE',''
  ) );
#843 = ADVANCED_FACE('',(#844),#570,.T.);
#844 = FACE_BOUND('',#845,.T.);
#845 = EDGE_LOOP('',(#846,#847,#848,#849));
#846 = ORIENTED_EDGE('',*,*,#823,.F.);
#847 = ORIENTED_EDGE('',*,*,#554,.T.);
#848 = ORIENTED_EDGE('',*,*,#774,.T.);
#849 = ORIENTED_EDGE('',*,*,#850,.F.);
#850 = EDGE_CURVE('',#801,#752,#851,.T.);
#851 = SURFACE_CURVE('',#852,(#856,#863),.PCURVE_S1.);
#852 = LINE('',#853,#854);
#853 = CARTESIAN_POINT('',(1.228194476392E+03,383.77406610312,-32.));
#854 = VECTOR('',#855,1.);
#855 = DIRECTION('',(0.,0.,1.));
#856 = PCURVE('',#570,#857);
#857 = DEFINITIONAL_REPRESENTATION('',(#858),#862);
#858 = LINE('',#859,#860);
#859 = CARTESIAN_POINT('',(0.,8.));
#860 = VECTOR('',#861,1.);
#861 = DIRECTION('',(1.,0.));
#862 = ( GEOMETRIC_REPRESENTATION_CONTEXT(2) 
PARAMETRIC_REPRESENTATION_CONTEXT() REPRESENTATION_CONTEXT('2D SPACE',''
  ) );
#863 = PCURVE('',#734,#864);
#864 = DEFINITIONAL_REPRESENTATION('',(#865),#869);
#865 = LINE('',#866,#867);
#866 = CARTESIAN_POINT('',(0.,-44.));
#867 = VECTOR('',#868,1.);
#868 = DIRECTION('',(1.,0.));
#869 = ( GEOMETRIC_REPRESENTATION_CONTEXT(2) 
PARAMETRIC_REPRESENTATION_CONTEXT() REPRESENTATION_CONTEXT('2D SPACE',''
  ) );
#870 = ADVANCED_FACE('',(#871,#902),#635,.F.);
#871 = FACE_BOUND('',#872,.F.);
#872 = EDGE_LOOP('',(#873));
#873 = ORIENTED_EDGE('',*,*,#874,.T.);
#874 = EDGE_CURVE('',#875,#875,#877,.T.);
#875 = VERTEX_POINT('',#876);
#876 = CARTESIAN_POINT('',(1.138194476392E+03,391.77406610312,8.));
#877 = SURFACE_CURVE('',#878,(#883,#890),.PCURVE_S1.);
#878 = CIRCLE('',#879,18.);
#879 = AXIS2_PLACEMENT_3D('',#880,#881,#882);
#880 = CARTESIAN_POINT('',(1.138194476392E+03,391.77406610312,-10.));
#881 = DIRECTION('',(0.,1.,0.));
#882 = DIRECTION('',(0.,-0.,1.));
#883 = PCURVE('',#635,#884);
#884 = DEFINITIONAL_REPRESENTATION('',(#885),#889);
#885 = CIRCLE('',#886,18.);
#886 = AXIS2_PLACEMENT_2D('',#887,#888);
#887 = CARTESIAN_POINT('',(0.,0.));
#888 = DIRECTION('',(1.,0.));
#889 = ( GEOMETRIC_REPRESENTATION_CONTEXT(2) 
PARAMETRIC_REPRESENTATION_CONTEXT() REPRESENTATION_CONTEXT('2D SPACE',''
  ) );
#890 = PCURVE('',#891,#896);
#891 = CYLINDRICAL_SURFACE('',#892,18.);
#892 = AXIS2_PLACEMENT_3D('',#893,#894,#895);
#893 = CARTESIAN_POINT('',(1.138194476392E+03,391.77406610312,-10.));
#894 = DIRECTION('',(0.,1.,0.));
#895 = DIRECTION('',(0.,-0.,1.));
#896 = DEFINITIONAL_REPRESENTATION('',(#897),#901);
#897 = LINE('',#898,#899);
#898 = CARTESIAN_POINT('',(0.,0.));
#899 = VECTOR('',#900,1.);
#900 = DIRECTION('',(1.,0.));
#901 = ( GEOMETRIC_REPRESENTATION_CONTEXT(2) 
PARAMETRIC_REPRESENTATION_CONTEXT() REPRESENTATION_CONTEXT('2D SPACE',''
  ) );
#902 = FACE_BOUND('',#903,.F.);
#903 = EDGE_LOOP('',(#904));
#904 = ORIENTED_EDGE('',*,*,#618,.F.);
#905 = ADVANCED_FACE('',(#906,#912),#734,.T.);
#906 = FACE_BOUND('',#907,.T.);
#907 = EDGE_LOOP('',(#908,#909,#910,#911));
#908 = ORIENTED_EDGE('',*,*,#720,.F.);
#909 = ORIENTED_EDGE('',*,*,#800,.T.);
#910 = ORIENTED_EDGE('',*,*,#850,.T.);
#911 = ORIENTED_EDGE('',*,*,#751,.F.);
#912 = FACE_BOUND('',#913,.T.);
#913 = EDGE_LOOP('',(#914));
#914 = ORIENTED_EDGE('',*,*,#915,.F.);
#915 = EDGE_CURVE('',#916,#916,#918,.T.);
#916 = VERTEX_POINT('',#917);
#917 = CARTESIAN_POINT('',(1.228194476392E+03,361.77406610312,-6.));
#918 = SURFACE_CURVE('',#919,(#924,#931),.PCURVE_S1.);
#919 = CIRCLE('',#920,4.);
#920 = AXIS2_PLACEMENT_3D('',#921,#922,#923);
#921 = CARTESIAN_POINT('',(1.228194476392E+03,361.77406610312,-10.));
#922 = DIRECTION('',(1.,0.,0.));
#923 = DIRECTION('',(-0.,0.,1.));
#924 = PCURVE('',#734,#925);
#925 = DEFINITIONAL_REPRESENTATION('',(#926),#930);
#926 = CIRCLE('',#927,4.);
#927 = AXIS2_PLACEMENT_2D('',#928,#929);
#928 = CARTESIAN_POINT('',(22.,-22.));
#929 = DIRECTION('',(1.,0.));
#930 = ( GEOMETRIC_REPRESENTATION_CONTEXT(2) 
PARAMETRIC_REPRESENTATION_CONTEXT() REPRESENTATION_CONTEXT('2D SPACE',''
  ) );
#931 = PCURVE('',#932,#937);
#932 = CYLINDRICAL_SURFACE('',#933,4.);
#933 = AXIS2_PLACEMENT_3D('',#934,#935,#936);
#934 = CARTESIAN_POINT('',(1.226194476392E+03,361.77406610312,-10.));
#935 = DIRECTION('',(1.,0.,0.));
#936 = DIRECTION('',(-0.,0.,1.));
#937 = DEFINITIONAL_REPRESENTATION('',(#938),#942);
#938 = LINE('',#939,#940);
#939 = CARTESIAN_POINT('',(0.,2.));
#940 = VECTOR('',#941,1.);
#941 = DIRECTION('',(1.,0.));
#942 = ( GEOMETRIC_REPRESENTATION_CONTEXT(2) 
PARAMETRIC_REPRESENTATION_CONTEXT() REPRESENTATION_CONTEXT('2D SPACE',''
  ) );
#943 = ADVANCED_FACE('',(#944),#891,.T.);
#944 = FACE_BOUND('',#945,.T.);
#945 = EDGE_LOOP('',(#946,#975,#996,#997));
#946 = ORIENTED_EDGE('',*,*,#947,.F.);
#947 = EDGE_CURVE('',#948,#948,#950,.T.);
#948 = VERTEX_POINT('',#949);
#949 = CARTESIAN_POINT('',(1.138194476392E+03,426.77406610312,8.));
#950 = SURFACE_CURVE('',#951,(#956,#963),.PCURVE_S1.);
#951 = CIRCLE('',#952,18.);
#952 = AXIS2_PLACEMENT_3D('',#953,#954,#955);
#953 = CARTESIAN_POINT('',(1.138194476392E+03,426.77406610312,-10.));
#954 = DIRECTION('',(0.,1.,0.));
#955 = DIRECTION('',(0.,-0.,1.));
#956 = PCURVE('',#891,#957);
#957 = DEFINITIONAL_REPRESENTATION('',(#958),#962);
#958 = LINE('',#959,#960);
#959 = CARTESIAN_POINT('',(0.,35.));
#960 = VECTOR('',#961,1.);
#961 = DIRECTION('',(1.,0.));
#962 = ( GEOMETRIC_REPRESENTATION_CONTEXT(2) 
PARAMETRIC_REPRESENTATION_CONTEXT() REPRESENTATION_CONTEXT('2D SPACE',''
  ) );
#963 = PCURVE('',#964,#969);
#964 = PLANE('',#965);
#965 = AXIS2_PLACEMENT_3D('',#966,#967,#968);
#966 = CARTESIAN_POINT('',(1.138194476392E+03,426.77406610312,-10.));
#967 = DIRECTION('',(0.,1.,0.));
#968 = DIRECTION('',(0.,-0.,1.));
#969 = DEFINITIONAL_REPRESENTATION('',(#970),#974);
#970 = CIRCLE('',#971,18.);
#971 = AXIS2_PLACEMENT_2D('',#972,#973);
#972 = CARTESIAN_POINT('',(0.,0.));
#973 = DIRECTION('',(1.,0.));
#974 = ( GEOMETRIC_REPRESENTATION_CONTEXT(2) 
PARAMETRIC_REPRESENTATION_CONTEXT() REPRESENTATION_CONTEXT('2D SPACE',''
  ) );
#975 = ORIENTED_EDGE('',*,*,#976,.F.);
#976 = EDGE_CURVE('',#875,#948,#977,.T.);
#977 = SEAM_CURVE('',#978,(#982,#989),.PCURVE_S1.);
#978 = LINE('',#979,#980);
#979 = CARTESIAN_POINT('',(1.138194476392E+03,391.77406610312,8.));
#980 = VECTOR('',#981,1.);
#981 = DIRECTION('',(0.,1.,0.));
#982 = PCURVE('',#891,#983);
#983 = DEFINITIONAL_REPRESENTATION('',(#984),#988);
#984 = LINE('',#985,#986);
#985 = CARTESIAN_POINT('',(6.28318530718,-0.));
#986 = VECTOR('',#987,1.);
#987 = DIRECTION('',(0.,1.));
#988 = ( GEOMETRIC_REPRESENTATION_CONTEXT(2) 
PARAMETRIC_REPRESENTATION_CONTEXT() REPRESENTATION_CONTEXT('2D SPACE',''
  ) );
#989 = PCURVE('',#891,#990);
#990 = DEFINITIONAL_REPRESENTATION('',(#991),#995);
#991 = LINE('',#992,#993);
#992 = CARTESIAN_POINT('',(0.,-0.));
#993 = VECTOR('',#994,1.);
#994 = DIRECTION('',(0.,1.));
#995 = ( GEOMETRIC_REPRESENTATION_CONTEXT(2) 
PARAMETRIC_REPRESENTATION_CONTEXT() REPRESENTATION_CONTEXT('2D SPACE',''
  ) );
#996 = ORIENTED_EDGE('',*,*,#874,.T.);
#997 = ORIENTED_EDGE('',*,*,#976,.T.);
#998 = ADVANCED_FACE('',(#999),#932,.T.);
#999 = FACE_BOUND('',#1000,.T.);
#1000 = EDGE_LOOP('',(#1001,#1024,#1051,#1052));
#1001 = ORIENTED_EDGE('',*,*,#1002,.T.);
#1002 = EDGE_CURVE('',#916,#1003,#1005,.T.);
#1003 = VERTEX_POINT('',#1004);
#1004 = CARTESIAN_POINT('',(1.260194476392E+03,361.77406610312,-6.));
#1005 = SEAM_CURVE('',#1006,(#1010,#1017),.PCURVE_S1.);
#1006 = LINE('',#1007,#1008);
#1007 = CARTESIAN_POINT('',(1.226194476392E+03,361.77406610312,-6.));
#1008 = VECTOR('',#1009,1.);
#1009 = DIRECTION('',(1.,0.,0.));
#1010 = PCURVE('',#932,#1011);
#1011 = DEFINITIONAL_REPRESENTATION('',(#1012),#1016);
#1012 = LINE('',#1013,#1014);
#1013 = CARTESIAN_POINT('',(6.28318530718,-0.));
#1014 = VECTOR('',#1015,1.);
#1015 = DIRECTION('',(0.,1.));
#1016 = ( GEOMETRIC_REPRESENTATION_CONTEXT(2) 
PARAMETRIC_REPRESENTATION_CONTEXT() REPRESENTATION_CONTEXT('2D SPACE',''
  ) );
#1017 = PCURVE('',#932,#1018);
#1018 = DEFINITIONAL_REPRESENTATION('',(#1019),#1023);
#1019 = LINE('',#1020,#1021);
#1020 = CARTESIAN_POINT('',(0.,-0.));
#1021 = VECTOR('',#1022,1.);
#1022 = DIRECTION('',(0.,1.));
#1023 = ( GEOMETRIC_REPRESENTATION_CONTEXT(2) 
PARAMETRIC_REPRESENTATION_CONTEXT() REPRESENTATION_CONTEXT('2D SPACE',''
  ) );
#1024 = ORIENTED_EDGE('',*,*,#1025,.F.);
#1025 = EDGE_CURVE('',#1003,#1003,#1026,.T.);
#1026 = SURFACE_CURVE('',#1027,(#1032,#1039),.PCURVE_S1.);
#1027 = CIRCLE('',#1028,4.);
#1028 = AXIS2_PLACEMENT_3D('',#1029,#1030,#1031);
#1029 = CARTESIAN_POINT('',(1.260194476392E+03,361.77406610312,-10.));
#1030 = DIRECTION('',(1.,0.,0.));
#1031 = DIRECTION('',(-0.,0.,1.));
#1032 = PCURVE('',#932,#1033);
#1033 = DEFINITIONAL_REPRESENTATION('',(#1034),#1038);
#1034 = LINE('',#1035,#1036);
#1035 = CARTESIAN_POINT('',(0.,34.));
#1036 = VECTOR('',#1037,1.);
#1037 = DIRECTION('',(1.,0.));
#1038 = ( GEOMETRIC_REPRESENTATION_CONTEXT(2) 
PARAMETRIC_REPRESENTATION_CONTEXT() REPRESENTATION_CONTEXT('2D SPACE',''
  ) );
#1039 = PCURVE('',#1040,#1045);
#1040 = PLANE('',#1041);
#1041 = AXIS2_PLACEMENT_3D('',#1042,#1043,#1044);
#1042 = CARTESIAN_POINT('',(1.260194476392E+03,361.77406610312,-10.));
#1043 = DIRECTION('',(1.,0.,0.));
#1044 = DIRECTION('',(-0.,0.,1.));
#1045 = DEFINITIONAL_REPRESENTATION('',(#1046),#1050);
#1046 = CIRCLE('',#1047,4.);
#1047 = AXIS2_PLACEMENT_2D('',#1048,#1049);
#1048 = CARTESIAN_POINT('',(0.,0.));
#1049 = DIRECTION('',(1.,0.));
#1050 = ( GEOMETRIC_REPRESENTATION_CONTEXT(2) 
PARAMETRIC_REPRESENTATION_CONTEXT() REPRESENTATION_CONTEXT('2D SPACE',''
  ) );
#1051 = ORIENTED_EDGE('',*,*,#1002,.F.);
#1052 = ORIENTED_EDGE('',*,*,#915,.T.);
#1053 = ADVANCED_FACE('',(#1054,#1085),#964,.F.);
#1054 = FACE_BOUND('',#1055,.F.);
#1055 = EDGE_LOOP('',(#1056));
#1056 = ORIENTED_EDGE('',*,*,#1057,.T.);
#1057 = EDGE_CURVE('',#1058,#1058,#1060,.T.);
#1058 = VERTEX_POINT('',#1059);
#1059 = CARTESIAN_POINT('',(1.138194476392E+03,426.77406610312,10.));
#1060 = SURFACE_CURVE('',#1061,(#1066,#1073),.PCURVE_S1.);
#1061 = CIRCLE('',#1062,20.);
#1062 = AXIS2_PLACEMENT_3D('',#1063,#1064,#1065);
#1063 = CARTESIAN_POINT('',(1.138194476392E+03,426.77406610312,-10.));
#1064 = DIRECTION('',(0.,1.,0.));
#1065 = DIRECTION('',(0.,-0.,1.));
#1066 = PCURVE('',#964,#1067);
#1067 = DEFINITIONAL_REPRESENTATION('',(#1068),#1072);
#1068 = CIRCLE('',#1069,20.);
#1069 = AXIS2_PLACEMENT_2D('',#1070,#1071);
#1070 = CARTESIAN_POINT('',(0.,0.));
#1071 = DIRECTION('',(1.,0.));
#1072 = ( GEOMETRIC_REPRESENTATION_CONTEXT(2) 
PARAMETRIC_REPRESENTATION_CONTEXT() REPRESENTATION_CONTEXT('2D SPACE',''
  ) );
#1073 = PCURVE('',#1074,#1079);
#1074 = CYLINDRICAL_SURFACE('',#1075,20.);
#1075 = AXIS2_PLACEMENT_3D('',#1076,#1077,#1078);
#1076 = CARTESIAN_POINT('',(1.138194476392E+03,426.77406610312,-10.));
#1077 = DIRECTION('',(0.,1.,0.));
#1078 = DIRECTION('',(0.,-0.,1.));
#1079 = DEFINITIONAL_REPRESENTATION('',(#1080),#1084);
#1080 = LINE('',#1081,#1082);
#1081 = CARTESIAN_POINT('',(0.,0.));
#1082 = VECTOR('',#1083,1.);
#1083 = DIRECTION('',(1.,0.));
#1084 = ( GEOMETRIC_REPRESENTATION_CONTEXT(2) 
PARAMETRIC_REPRESENTATION_CONTEXT() REPRESENTATION_CONTEXT('2D SPACE',''
  ) );
#1085 = FACE_BOUND('',#1086,.F.);
#1086 = EDGE_LOOP('',(#1087));
#1087 = ORIENTED_EDGE('',*,*,#947,.F.);
#1088 = ADVANCED_FACE('',(#1089),#1040,.T.);
#1089 = FACE_BOUND('',#1090,.T.);
#1090 = EDGE_LOOP('',(#1091));
#1091 = ORIENTED_EDGE('',*,*,#1025,.T.);
#1092 = ADVANCED_FACE('',(#1093),#1074,.T.);
#1093 = FACE_BOUND('',#1094,.T.);
#1094 = EDGE_LOOP('',(#1095,#1124,#1145,#1146));
#1095 = ORIENTED_EDGE('',*,*,#1096,.F.);
#1096 = EDGE_CURVE('',#1097,#1097,#1099,.T.);
#1097 = VERTEX_POINT('',#1098);
#1098 = CARTESIAN_POINT('',(1.138194476392E+03,432.77406610312,10.));
#1099 = SURFACE_CURVE('',#1100,(#1105,#1112),.PCURVE_S1.);
#1100 = CIRCLE('',#1101,20.);
#1101 = AXIS2_PLACEMENT_3D('',#1102,#1103,#1104);
#1102 = CARTESIAN_POINT('',(1.138194476392E+03,432.77406610312,-10.));
#1103 = DIRECTION('',(0.,1.,0.));
#1104 = DIRECTION('',(0.,-0.,1.));
#1105 = PCURVE('',#1074,#1106);
#1106 = DEFINITIONAL_REPRESENTATION('',(#1107),#1111);
#1107 = LINE('',#1108,#1109);
#1108 = CARTESIAN_POINT('',(0.,6.));
#1109 = VECTOR('',#1110,1.);
#1110 = DIRECTION('',(1.,0.));
#1111 = ( GEOMETRIC_REPRESENTATION_CONTEXT(2) 
PARAMETRIC_REPRESENTATION_CONTEXT() REPRESENTATION_CONTEXT('2D SPACE',''
  ) );
#1112 = PCURVE('',#1113,#1118);
#1113 = PLANE('',#1114);
#1114 = AXIS2_PLACEMENT_3D('',#1115,#1116,#1117);
#1115 = CARTESIAN_POINT('',(1.138194476392E+03,432.77406610312,-10.));
#1116 = DIRECTION('',(0.,1.,0.));
#1117 = DIRECTION('',(0.,-0.,1.));
#1118 = DEFINITIONAL_REPRESENTATION('',(#1119),#1123);
#1119 = CIRCLE('',#1120,20.);
#1120 = AXIS2_PLACEMENT_2D('',#1121,#1122);
#1121 = CARTESIAN_POINT('',(0.,0.));
#1122 = DIRECTION('',(1.,0.));
#1123 = ( GEOMETRIC_REPRESENTATION_CONTEXT(2) 
PARAMETRIC_REPRESENTATION_CONTEXT() REPRESENTATION_CONTEXT('2D SPACE',''
  ) );
#1124 = ORIENTED_EDGE('',*,*,#1125,.F.);
#1125 = EDGE_CURVE('',#1058,#1097,#1126,.T.);
#1126 = SEAM_CURVE('',#1127,(#1131,#1138),.PCURVE_S1.);
#1127 = LINE('',#1128,#1129);
#1128 = CARTESIAN_POINT('',(1.138194476392E+03,426.77406610312,10.));
#1129 = VECTOR('',#1130,1.);
#1130 = DIRECTION('',(0.,1.,0.));
#1131 = PCURVE('',#1074,#1132);
#1132 = DEFINITIONAL_REPRESENTATION('',(#1133),#1137);
#1133 = LINE('',#1134,#1135);
#1134 = CARTESIAN_POINT('',(6.28318530718,-0.));
#1135 = VECTOR('',#1136,1.);
#1136 = DIRECTION('',(0.,1.));
#1137 = ( GEOMETRIC_REPRESENTATION_CONTEXT(2) 
PARAMETRIC_REPRESENTATION_CONTEXT() REPRESENTATION_CONTEXT('2D SPACE',''
  ) );
#1138 = PCURVE('',#1074,#1139);
#1139 = DEFINITIONAL_REPRESENTATION('',(#1140),#1144);
#1140 = LINE('',#1141,#1142);
#1141 = CARTESIAN_POINT('',(0.,-0.));
#1142 = VECTOR('',#1143,1.);
#1143 = DIRECTION('',(0.,1.));
#1144 = ( GEOMETRIC_REPRESENTATION_CONTEXT(2) 
PARAMETRIC_REPRESENTATION_CONTEXT() REPRESENTATION_CONTEXT('2D SPACE',''
  ) );
#1145 = ORIENTED_EDGE('',*,*,#1057,.T.);
#1146 = ORIENTED_EDGE('',*,*,#1125,.T.);
#1147 = ADVANCED_FACE('',(#1148),#1113,.T.);
#1148 = FACE_BOUND('',#1149,.T.);
#1149 = EDGE_LOOP('',(#1150));
#1150 = ORIENTED_EDGE('',*,*,#1096,.T.);
#1151 = ( GEOMETRIC_REPRESENTATION_CONTEXT(3) 
GLOBAL_UNCERTAINTY_ASSIGNED_CONTEXT((#1155)) 
GLOBAL_UNIT_ASSIGNED_CONTEXT((#1152,#1153,#1154)) REPRESENTATION_CONTEXT
('Context #1','3D Context with UNIT and UNCERTAINTY') );
#1152 = ( LENGTH_UNIT() NAMED_UNIT(*) SI_UNIT(.MILLI.,.METRE.) );
#1153 = ( NAMED_UNIT(*) PLANE_ANGLE_UNIT() SI_UNIT($,.RADIAN.) );
#1154 = ( NAMED_UNIT(*) SI_UNIT($,.STERADIAN.) SOLID_ANGLE_UNIT() );
#1155 = UNCERTAINTY_MEASURE_WITH_UNIT(LENGTH_MEASURE(1.E-07),#1152,
  'distance_accuracy_value','confusion accuracy');
#1156 = PRODUCT_RELATED_PRODUCT_CATEGORY('part',$,(#7));
#1157 = MECHANICAL_DESIGN_GEOMETRIC_PRESENTATION_REPRESENTATION('',(
    #1158),#1151);
#1158 = STYLED_ITEM('color',(#1159),#15);
#1159 = PRESENTATION_STYLE_ASSIGNMENT((#1160));
#1160 = SURFACE_STYLE_USAGE(.BOTH.,#1161);
#1161 = SURFACE_SIDE_STYLE('',(#1162));
#1162 = SURFACE_STYLE_FILL_AREA(#1163);
#1163 = FILL_AREA_STYLE('',(#1164));
#1164 = FILL_AREA_STYLE_COLOUR('',#1165);
#1165 = COLOUR_RGB('',0.484529207832,0.484529207832,0.537098730483);
ENDSEC;
END-ISO-10303-21;
